<mxfile host="app.diagrams.net" modified="2021-11-05T07:24:33.103Z" agent="5.0 (Macintosh; Intel Mac OS X 10_15_7) AppleWebKit/537.36 (KHTML, like Gecko) Chrome/81.0.4044.138 Safari/537.36" etag="KFpOfJbfcSCEx_XBR7Bp" version="15.6.8" type="github">
  <diagram id="w8OK4iNQ3MIWPr3b5XFv" name="Page-1">
    <mxGraphModel dx="1338" dy="711" grid="1" gridSize="10" guides="1" tooltips="1" connect="1" arrows="1" fold="1" page="1" pageScale="1" pageWidth="827" pageHeight="1169" math="0" shadow="0">
      <root>
        <mxCell id="0" />
        <mxCell id="1" parent="0" />
        <mxCell id="GmEpvZCuG4PthAVhdQ2N-1" value="自建Nacos" style="rounded=0;whiteSpace=wrap;html=1;" parent="1" vertex="1">
          <mxGeometry x="961" y="110" width="120" height="60" as="geometry" />
        </mxCell>
        <mxCell id="SzeubQiFRqJBc4d0boi--1" value="MSE-Nacos" style="rounded=0;whiteSpace=wrap;html=1;fillColor=#B5739D;" parent="1" vertex="1">
          <mxGeometry x="1596" y="110" width="120" height="60" as="geometry" />
        </mxCell>
        <mxCell id="SzeubQiFRqJBc4d0boi--2" value="业务1" style="rounded=0;whiteSpace=wrap;html=1;" parent="1" vertex="1">
          <mxGeometry x="911" y="630" width="220" height="60" as="geometry" />
        </mxCell>
        <mxCell id="SzeubQiFRqJBc4d0boi--4" value="Nacos-Dapr-agent" style="rounded=0;whiteSpace=wrap;html=1;fillColor=#FFCCCC;" parent="1" vertex="1">
          <mxGeometry x="911" y="500" width="220" height="60" as="geometry" />
        </mxCell>
        <mxCell id="SzeubQiFRqJBc4d0boi--8" value="其他Dapr内置组件" style="rounded=0;whiteSpace=wrap;html=1;" parent="1" vertex="1">
          <mxGeometry x="791" y="380" width="120" height="180" as="geometry" />
        </mxCell>
        <mxCell id="SzeubQiFRqJBc4d0boi--17" value="Dapr Sidecar" style="text;html=1;resizable=0;autosize=1;align=center;verticalAlign=middle;points=[];fillColor=none;strokeColor=none;rounded=0;shadow=1;" parent="1" vertex="1">
          <mxGeometry x="676" y="460" width="90" height="20" as="geometry" />
        </mxCell>
        <mxCell id="SzeubQiFRqJBc4d0boi--18" value="" style="endArrow=classic;html=1;rounded=0;entryX=0.5;entryY=1;entryDx=0;entryDy=0;" parent="1" source="SzeubQiFRqJBc4d0boi--2" target="SzeubQiFRqJBc4d0boi--4" edge="1">
          <mxGeometry width="50" height="50" relative="1" as="geometry">
            <mxPoint x="1081" y="450" as="sourcePoint" />
            <mxPoint x="1131" y="400" as="targetPoint" />
          </mxGeometry>
        </mxCell>
        <mxCell id="SzeubQiFRqJBc4d0boi--20" value="" style="endArrow=classic;html=1;rounded=0;exitX=0.5;exitY=0;exitDx=0;exitDy=0;entryX=0.5;entryY=1;entryDx=0;entryDy=0;" parent="1" source="Rm5aV41Vhj6KqYXFJUZh-2" target="GmEpvZCuG4PthAVhdQ2N-1" edge="1">
          <mxGeometry width="50" height="50" relative="1" as="geometry">
            <mxPoint x="1021" y="320" as="sourcePoint" />
            <mxPoint x="726" y="220" as="targetPoint" />
          </mxGeometry>
        </mxCell>
        <mxCell id="SzeubQiFRqJBc4d0boi--21" value="" style="endArrow=classic;html=1;rounded=0;entryX=0.5;entryY=1;entryDx=0;entryDy=0;" parent="1" target="SzeubQiFRqJBc4d0boi--1" edge="1">
          <mxGeometry width="50" height="50" relative="1" as="geometry">
            <mxPoint x="1021" y="380" as="sourcePoint" />
            <mxPoint x="936" y="180" as="targetPoint" />
          </mxGeometry>
        </mxCell>
        <mxCell id="SzeubQiFRqJBc4d0boi--27" value="" style="endArrow=classic;html=1;rounded=0;entryX=0.5;entryY=1;entryDx=0;entryDy=0;exitX=0.473;exitY=0;exitDx=0;exitDy=0;exitPerimeter=0;" parent="1" source="Rm5aV41Vhj6KqYXFJUZh-16" target="SzeubQiFRqJBc4d0boi--1" edge="1">
          <mxGeometry width="50" height="50" relative="1" as="geometry">
            <mxPoint x="1656.1" y="373.02" as="sourcePoint" />
            <mxPoint x="1166" y="170" as="targetPoint" />
          </mxGeometry>
        </mxCell>
        <mxCell id="SzeubQiFRqJBc4d0boi--28" value="" style="endArrow=classic;html=1;rounded=0;exitX=0.455;exitY=0;exitDx=0;exitDy=0;exitPerimeter=0;" parent="1" source="Rm5aV41Vhj6KqYXFJUZh-16" edge="1">
          <mxGeometry width="50" height="50" relative="1" as="geometry">
            <mxPoint x="1656.98" y="373.98" as="sourcePoint" />
            <mxPoint x="1021" y="170" as="targetPoint" />
          </mxGeometry>
        </mxCell>
        <mxCell id="Rm5aV41Vhj6KqYXFJUZh-2" value="路由选择" style="rounded=0;whiteSpace=wrap;html=1;fillColor=#FFFF00;" vertex="1" parent="1">
          <mxGeometry x="911" y="380" width="220" height="60" as="geometry" />
        </mxCell>
        <mxCell id="Rm5aV41Vhj6KqYXFJUZh-3" value="配置处理逻辑" style="rounded=0;whiteSpace=wrap;html=1;fillColor=#FFCC99;" vertex="1" parent="1">
          <mxGeometry x="911" y="440" width="115" height="60" as="geometry" />
        </mxCell>
        <mxCell id="Rm5aV41Vhj6KqYXFJUZh-4" value="服务发现处理逻辑" style="rounded=0;whiteSpace=wrap;html=1;fillColor=#FFCC99;" vertex="1" parent="1">
          <mxGeometry x="1026" y="440" width="105" height="60" as="geometry" />
        </mxCell>
        <mxCell id="Rm5aV41Vhj6KqYXFJUZh-13" value="" style="rounded=0;whiteSpace=wrap;html=1;shadow=0;strokeColor=#B5739D;fillColor=none;" vertex="1" parent="1">
          <mxGeometry x="666" y="360" width="510" height="220" as="geometry" />
        </mxCell>
        <mxCell id="Rm5aV41Vhj6KqYXFJUZh-14" value="Nacos-Dapr-agent" style="rounded=0;whiteSpace=wrap;html=1;fillColor=#FFCCCC;" vertex="1" parent="1">
          <mxGeometry x="1556" y="500" width="220" height="60" as="geometry" />
        </mxCell>
        <mxCell id="Rm5aV41Vhj6KqYXFJUZh-15" value="其他Dapr内置组件" style="rounded=0;whiteSpace=wrap;html=1;" vertex="1" parent="1">
          <mxGeometry x="1436" y="380" width="120" height="180" as="geometry" />
        </mxCell>
        <mxCell id="Rm5aV41Vhj6KqYXFJUZh-16" value="路由选择" style="rounded=0;whiteSpace=wrap;html=1;fillColor=#FFFF00;" vertex="1" parent="1">
          <mxGeometry x="1556" y="380" width="220" height="60" as="geometry" />
        </mxCell>
        <mxCell id="Rm5aV41Vhj6KqYXFJUZh-17" value="配置处理逻辑" style="rounded=0;whiteSpace=wrap;html=1;fillColor=#FFCC99;" vertex="1" parent="1">
          <mxGeometry x="1556" y="440" width="115" height="60" as="geometry" />
        </mxCell>
        <mxCell id="Rm5aV41Vhj6KqYXFJUZh-18" value="服务发现处理逻辑" style="rounded=0;whiteSpace=wrap;html=1;fillColor=#FFCC99;" vertex="1" parent="1">
          <mxGeometry x="1671" y="440" width="105" height="60" as="geometry" />
        </mxCell>
        <mxCell id="Rm5aV41Vhj6KqYXFJUZh-19" value="" style="rounded=0;whiteSpace=wrap;html=1;shadow=0;strokeColor=#B5739D;fillColor=none;" vertex="1" parent="1">
          <mxGeometry x="1306" y="360" width="510" height="220" as="geometry" />
        </mxCell>
        <mxCell id="Rm5aV41Vhj6KqYXFJUZh-20" value="业务2" style="rounded=0;whiteSpace=wrap;html=1;" vertex="1" parent="1">
          <mxGeometry x="1556" y="630" width="220" height="60" as="geometry" />
        </mxCell>
        <mxCell id="Rm5aV41Vhj6KqYXFJUZh-21" value="" style="endArrow=classic;html=1;rounded=0;entryX=0.5;entryY=1;entryDx=0;entryDy=0;" edge="1" parent="1" source="Rm5aV41Vhj6KqYXFJUZh-20">
          <mxGeometry width="50" height="50" relative="1" as="geometry">
            <mxPoint x="1726" y="450" as="sourcePoint" />
            <mxPoint x="1666" y="560" as="targetPoint" />
          </mxGeometry>
        </mxCell>
        <mxCell id="Rm5aV41Vhj6KqYXFJUZh-22" value="双写1-1" style="text;html=1;resizable=0;autosize=1;align=center;verticalAlign=middle;points=[];fillColor=none;strokeColor=none;rounded=0;shadow=1;" vertex="1" parent="1">
          <mxGeometry x="1026" y="300" width="60" height="20" as="geometry" />
        </mxCell>
        <mxCell id="Rm5aV41Vhj6KqYXFJUZh-24" value="双写1-2" style="text;html=1;resizable=0;autosize=1;align=center;verticalAlign=middle;points=[];fillColor=none;strokeColor=none;rounded=0;shadow=1;" vertex="1" parent="1">
          <mxGeometry x="1156" y="300" width="60" height="20" as="geometry" />
        </mxCell>
        <mxCell id="Rm5aV41Vhj6KqYXFJUZh-25" value="双写2-1" style="text;html=1;resizable=0;autosize=1;align=center;verticalAlign=middle;points=[];fillColor=none;strokeColor=none;rounded=0;shadow=1;" vertex="1" parent="1">
          <mxGeometry x="1486" y="300" width="60" height="20" as="geometry" />
        </mxCell>
        <mxCell id="Rm5aV41Vhj6KqYXFJUZh-26" value="双写2-2" style="text;html=1;resizable=0;autosize=1;align=center;verticalAlign=middle;points=[];fillColor=none;strokeColor=none;rounded=0;shadow=1;" vertex="1" parent="1">
          <mxGeometry x="1596" y="300" width="60" height="20" as="geometry" />
        </mxCell>
        <mxCell id="Rm5aV41Vhj6KqYXFJUZh-27" value="Nacos-client" style="rounded=0;whiteSpace=wrap;html=1;shadow=0;strokeColor=#B5739D;fillColor=#FFCCCC;" vertex="1" parent="1">
          <mxGeometry x="130" y="530" width="250" height="60" as="geometry" />
        </mxCell>
        <mxCell id="Rm5aV41Vhj6KqYXFJUZh-28" value="业务" style="rounded=0;whiteSpace=wrap;html=1;" vertex="1" parent="1">
          <mxGeometry x="130" y="620" width="250" height="60" as="geometry" />
        </mxCell>
        <mxCell id="Rm5aV41Vhj6KqYXFJUZh-29" value="自建Nacos" style="rounded=0;whiteSpace=wrap;html=1;" vertex="1" parent="1">
          <mxGeometry x="80" y="310" width="120" height="60" as="geometry" />
        </mxCell>
        <mxCell id="Rm5aV41Vhj6KqYXFJUZh-30" value="MSE-Nacos" style="rounded=0;whiteSpace=wrap;html=1;fillColor=#B5739D;" vertex="1" parent="1">
          <mxGeometry x="340" y="310" width="120" height="60" as="geometry" />
        </mxCell>
        <mxCell id="Rm5aV41Vhj6KqYXFJUZh-31" value="" style="endArrow=classic;html=1;rounded=0;exitX=0.5;exitY=0;exitDx=0;exitDy=0;entryX=0.5;entryY=1;entryDx=0;entryDy=0;" edge="1" parent="1" source="Rm5aV41Vhj6KqYXFJUZh-27" target="Rm5aV41Vhj6KqYXFJUZh-29">
          <mxGeometry width="50" height="50" relative="1" as="geometry">
            <mxPoint x="390" y="420" as="sourcePoint" />
            <mxPoint x="440" y="370" as="targetPoint" />
          </mxGeometry>
        </mxCell>
        <mxCell id="Rm5aV41Vhj6KqYXFJUZh-32" value="" style="endArrow=classic;html=1;rounded=0;entryX=0.567;entryY=1.033;entryDx=0;entryDy=0;entryPerimeter=0;exitX=0.5;exitY=0;exitDx=0;exitDy=0;" edge="1" parent="1" source="Rm5aV41Vhj6KqYXFJUZh-27" target="Rm5aV41Vhj6KqYXFJUZh-30">
          <mxGeometry width="50" height="50" relative="1" as="geometry">
            <mxPoint x="250" y="530" as="sourcePoint" />
            <mxPoint x="130" y="420" as="targetPoint" />
          </mxGeometry>
        </mxCell>
        <mxCell id="Rm5aV41Vhj6KqYXFJUZh-35" value="有损迁移" style="shape=singleArrow;whiteSpace=wrap;html=1;shadow=0;strokeColor=#B5739D;fillColor=#FFCCCC;" vertex="1" parent="1">
          <mxGeometry x="210" y="380" width="100" height="80" as="geometry" />
        </mxCell>
      </root>
    </mxGraphModel>
  </diagram>
</mxfile>
